<svg width="751" height="223" viewBox="0 0 751 223" fill="none" xmlns="http://www.w3.org/2000/svg">
<g clip-path="url(#clip0_641_6042)">
<path d="M124.046 119.99C123.663 119.99 123.292 119.88 122.994 119.677C122.697 119.474 122.491 119.192 122.411 118.876C122.332 118.561 122.383 118.233 122.557 117.946C122.731 117.659 123.017 117.43 123.367 117.299C125.003 116.686 126.595 115.992 128.134 115.222C128.515 115.031 128.97 114.976 129.4 115.068C129.829 115.16 130.197 115.392 130.424 115.712C130.65 116.033 130.716 116.416 130.606 116.777C130.497 117.139 130.222 117.449 129.841 117.639C128.189 118.466 126.48 119.21 124.724 119.868C124.511 119.949 124.28 119.99 124.046 119.99Z" fill="#391D1E"/>
<path d="M645.43 136C643.842 136 642.247 135.954 640.689 135.864C640.47 135.852 640.255 135.804 640.057 135.723C639.86 135.641 639.684 135.527 639.538 135.388C639.393 135.248 639.282 135.086 639.212 134.911C639.142 134.735 639.113 134.55 639.128 134.365C639.143 134.18 639.202 134 639.3 133.834C639.398 133.668 639.534 133.52 639.701 133.399C639.867 133.277 640.06 133.185 640.269 133.127C640.478 133.068 640.699 133.046 640.918 133.059C644.511 133.261 648.117 133.225 651.702 132.949C652.144 132.916 652.582 133.031 652.923 133.27C653.263 133.509 653.476 133.852 653.516 134.223C653.555 134.594 653.418 134.964 653.134 135.25C652.85 135.536 652.443 135.716 652.001 135.749C649.802 135.916 647.591 136 645.43 136ZM291.029 135.304C290.973 135.304 290.917 135.302 290.86 135.297C286.978 134.975 283.198 134.063 279.702 132.606C279.306 132.439 279.006 132.146 278.867 131.792C278.727 131.438 278.761 131.052 278.96 130.719C279.159 130.386 279.507 130.133 279.927 130.015C280.348 129.898 280.807 129.926 281.202 130.094C284.333 131.397 287.718 132.212 291.194 132.5C291.62 132.536 292.014 132.708 292.293 132.981C292.572 133.255 292.716 133.608 292.695 133.968C292.674 134.328 292.489 134.667 292.179 134.916C291.869 135.165 291.457 135.304 291.029 135.304ZM301.985 134.537C301.582 134.537 301.193 134.414 300.889 134.192C300.586 133.969 300.388 133.662 300.332 133.326C300.276 132.99 300.366 132.649 300.585 132.365C300.805 132.081 301.139 131.873 301.526 131.779C304.827 131.027 307.844 129.578 310.291 127.568C310.603 127.304 311.026 127.154 311.469 127.153C311.911 127.152 312.337 127.298 312.651 127.56C312.965 127.822 313.143 128.178 313.146 128.551C313.148 128.923 312.975 129.281 312.664 129.546C309.814 131.898 306.296 133.598 302.446 134.482C302.296 134.519 302.141 134.537 301.985 134.537ZM629.898 134.408C629.758 134.408 629.617 134.393 629.481 134.363C625.789 133.572 622.208 132.448 618.802 131.011C618.407 130.843 618.107 130.55 617.969 130.196C617.83 129.842 617.865 129.456 618.064 129.123C618.264 128.79 618.613 128.538 619.034 128.421C619.454 128.305 619.913 128.334 620.308 128.502C623.5 129.848 626.854 130.9 630.314 131.64C630.707 131.726 631.051 131.929 631.279 132.212C631.507 132.495 631.605 132.839 631.554 133.178C631.504 133.518 631.307 133.83 631.002 134.056C630.698 134.283 630.305 134.408 629.898 134.408ZM662.756 134.247C662.347 134.247 661.952 134.12 661.646 133.891C661.341 133.662 661.146 133.347 661.098 133.005C661.05 132.663 661.153 132.319 661.387 132.036C661.621 131.754 661.971 131.554 662.368 131.474C665.267 130.891 668.121 130.165 670.918 129.299C671.511 129.116 672.101 128.927 672.688 128.733C673.1 128.597 673.56 128.605 673.966 128.754C674.372 128.903 674.691 129.182 674.852 129.53C675.014 129.877 675.005 130.264 674.828 130.605C674.65 130.947 674.319 131.215 673.906 131.351C673.298 131.552 672.686 131.747 672.072 131.938C669.152 132.841 666.171 133.599 663.145 134.208C663.018 134.234 662.887 134.247 662.756 134.247ZM383.229 128.368C382.788 128.368 382.365 128.221 382.052 127.959C381.739 127.698 381.562 127.342 381.559 126.971C381.556 126.6 381.728 126.243 382.037 125.978C382.346 125.713 382.767 125.562 383.208 125.557C386.704 125.494 390.158 124.903 393.406 123.812C393.818 123.678 394.277 123.688 394.682 123.838C395.087 123.989 395.404 124.268 395.564 124.615C395.724 124.962 395.714 125.348 395.536 125.689C395.359 126.03 395.028 126.297 394.616 126.433C390.996 127.646 387.146 128.301 383.251 128.368L383.229 128.368ZM683.351 127.579C682.977 127.579 682.614 127.474 682.32 127.28C682.025 127.086 681.817 126.814 681.728 126.509C681.639 126.203 681.674 125.881 681.828 125.594C681.981 125.308 682.245 125.073 682.577 124.927C685.65 123.576 688.824 122.023 692.009 120.312C692.194 120.212 692.4 120.145 692.616 120.112C692.832 120.08 693.054 120.084 693.268 120.124C693.482 120.164 693.685 120.239 693.865 120.344C694.045 120.45 694.198 120.585 694.316 120.74C694.434 120.896 694.514 121.07 694.553 121.251C694.591 121.433 694.586 121.619 694.539 121.8C694.492 121.98 694.403 122.151 694.277 122.302C694.151 122.453 693.992 122.582 693.807 122.682C690.54 124.437 687.282 126.03 684.123 127.419C683.885 127.524 683.62 127.579 683.351 127.579ZM271.715 127.13C271.487 127.13 271.261 127.091 271.052 127.015C270.843 126.939 270.654 126.827 270.498 126.688C267.884 124.323 265.65 121.68 263.854 118.826C263.645 118.498 263.6 118.113 263.728 117.757C263.856 117.4 264.147 117.101 264.537 116.925C264.927 116.749 265.384 116.71 265.808 116.817C266.231 116.924 266.587 117.169 266.797 117.496C268.455 120.133 270.517 122.575 272.93 124.76C273.154 124.96 273.303 125.21 273.359 125.481C273.416 125.751 273.377 126.029 273.248 126.281C273.118 126.533 272.904 126.748 272.632 126.898C272.36 127.049 272.041 127.129 271.715 127.13ZM372.534 126.38C372.273 126.38 372.015 126.328 371.782 126.229C371.104 125.94 370.444 125.623 369.804 125.279C367.138 123.813 364.8 121.963 362.9 119.812C362.63 119.516 362.512 119.143 362.57 118.773C362.628 118.403 362.858 118.068 363.21 117.842C363.562 117.615 364.006 117.515 364.445 117.564C364.884 117.613 365.282 117.807 365.552 118.103C367.218 119.993 369.267 121.62 371.605 122.911C372.15 123.204 372.712 123.474 373.289 123.72C373.625 123.863 373.893 124.096 374.051 124.383C374.209 124.67 374.247 124.994 374.16 125.301C374.073 125.609 373.865 125.883 373.57 126.078C373.275 126.274 372.91 126.381 372.534 126.38ZM610.379 126.009C609.979 126.009 609.592 125.888 609.289 125.668C606.401 123.565 603.815 121.185 601.584 118.577C601.455 118.427 601.362 118.258 601.312 118.078C601.261 117.898 601.252 117.712 601.287 117.53C601.322 117.347 601.399 117.172 601.514 117.015C601.629 116.858 601.78 116.721 601.958 116.613C602.136 116.505 602.338 116.427 602.551 116.385C602.765 116.342 602.986 116.335 603.203 116.365C603.42 116.394 603.627 116.459 603.814 116.556C604.001 116.654 604.163 116.781 604.292 116.931C606.371 119.361 608.78 121.579 611.47 123.539C611.729 123.726 611.913 123.975 611.997 124.253C612.082 124.531 612.064 124.824 611.945 125.093C611.826 125.362 611.613 125.594 611.333 125.758C611.053 125.922 610.72 126.009 610.379 126.009ZM316.741 121.898C316.482 121.898 316.227 121.847 315.995 121.75C315.764 121.652 315.562 121.511 315.406 121.337C315.251 121.163 315.145 120.961 315.098 120.747C315.051 120.533 315.063 120.312 315.135 120.103C316.039 117.167 316.678 114.177 317.046 111.159C317.101 110.789 317.329 110.453 317.679 110.225C318.029 109.996 318.472 109.894 318.912 109.94C319.351 109.987 319.751 110.178 320.022 110.473C320.294 110.767 320.416 111.141 320.36 111.511C319.974 114.672 319.3 117.805 318.345 120.88C318.245 121.173 318.035 121.431 317.745 121.615C317.456 121.798 317.103 121.897 316.741 121.898ZM403.553 121.887C403.207 121.887 402.869 121.797 402.587 121.629C402.304 121.461 402.091 121.223 401.976 120.949C401.861 120.674 401.85 120.376 401.945 120.096C402.04 119.816 402.235 119.568 402.505 119.386C403.735 118.555 404.892 117.65 405.965 116.678C407.292 115.468 408.523 114.186 409.652 112.842C409.778 112.69 409.939 112.561 410.125 112.462C410.311 112.363 410.518 112.295 410.735 112.264C410.951 112.232 411.173 112.237 411.388 112.278C411.603 112.319 411.805 112.395 411.985 112.502C412.165 112.609 412.317 112.745 412.434 112.902C412.551 113.058 412.63 113.233 412.667 113.416C412.703 113.598 412.696 113.785 412.647 113.965C412.597 114.146 412.506 114.316 412.378 114.467C411.165 115.912 409.842 117.288 408.416 118.588C407.232 119.661 405.956 120.66 404.598 121.577C404.302 121.778 403.933 121.887 403.553 121.887ZM702.02 117.629C701.668 117.63 701.325 117.536 701.04 117.362C700.754 117.188 700.542 116.943 700.432 116.662C700.322 116.38 700.321 116.076 700.429 115.794C700.536 115.512 700.747 115.265 701.031 115.09C703.765 113.402 706.613 111.557 709.736 109.448C710.081 109.215 710.523 109.106 710.963 109.147C711.403 109.188 711.806 109.374 712.084 109.665C712.361 109.955 712.49 110.327 712.441 110.698C712.393 111.068 712.172 111.407 711.826 111.641C708.665 113.775 705.78 115.645 703.007 117.357C702.721 117.534 702.375 117.629 702.02 117.629ZM358.554 112.388C358.245 112.388 357.943 112.317 357.68 112.181C357.417 112.045 357.204 111.851 357.064 111.62C356.694 111.008 356.326 110.394 355.961 109.779C354.845 107.905 353.69 105.968 352.46 104.173C352.303 103.944 352.141 103.716 351.974 103.489C351.859 103.332 351.781 103.158 351.745 102.975C351.71 102.793 351.717 102.606 351.767 102.427C351.818 102.247 351.909 102.077 352.038 101.927C352.166 101.777 352.328 101.65 352.515 101.553C352.701 101.455 352.909 101.39 353.125 101.36C353.342 101.331 353.564 101.337 353.777 101.38C353.991 101.422 354.193 101.5 354.371 101.608C354.549 101.716 354.7 101.852 354.815 102.01C355 102.262 355.18 102.514 355.354 102.768C356.633 104.635 357.81 106.609 358.947 108.518C359.311 109.128 359.675 109.737 360.041 110.345C360.171 110.559 360.233 110.798 360.221 111.038C360.21 111.278 360.126 111.512 359.977 111.717C359.828 111.922 359.618 112.091 359.369 112.208C359.12 112.326 358.84 112.388 358.554 112.388ZM137.824 112.264C137.487 112.264 137.159 112.178 136.881 112.019C136.603 111.859 136.389 111.632 136.267 111.368C136.145 111.104 136.12 110.816 136.196 110.54C136.272 110.264 136.446 110.014 136.694 109.822C139.334 107.763 141.778 105.532 144.001 103.149C144.137 103.004 144.306 102.883 144.497 102.793C144.689 102.704 144.9 102.646 145.118 102.625C145.336 102.604 145.556 102.619 145.767 102.669C145.978 102.719 146.176 102.804 146.348 102.919C146.52 103.034 146.663 103.175 146.77 103.337C146.877 103.498 146.945 103.675 146.97 103.859C146.996 104.042 146.978 104.228 146.918 104.405C146.858 104.583 146.757 104.749 146.621 104.894C144.288 107.393 141.724 109.734 138.953 111.894C138.645 112.132 138.242 112.264 137.824 112.264ZM597.428 111.112C597.107 111.112 596.794 111.034 596.524 110.888C596.254 110.742 596.04 110.534 595.907 110.288C594.357 107.393 593.067 104.405 592.047 101.348C591.926 100.989 591.979 100.604 592.194 100.279C592.41 99.953 592.77 99.7127 593.196 99.6107C593.623 99.5087 594.079 99.5534 594.466 99.7348C594.854 99.9163 595.139 100.22 595.26 100.578C596.234 103.5 597.466 106.356 598.947 109.122C599.063 109.336 599.113 109.572 599.093 109.806C599.073 110.041 598.983 110.267 598.832 110.465C598.681 110.663 598.473 110.826 598.228 110.939C597.983 111.052 597.708 111.111 597.428 111.112ZM261.116 110.974C260.76 110.974 260.412 110.877 260.125 110.699C259.838 110.521 259.626 110.27 259.521 109.983C258.422 106.949 257.579 103.855 256.998 100.722C256.964 100.539 256.972 100.353 257.023 100.174C257.074 99.9941 257.167 99.8248 257.296 99.6754C257.425 99.526 257.587 99.3994 257.774 99.3029C257.961 99.2063 258.169 99.1417 258.386 99.1127C258.823 99.0542 259.27 99.1443 259.629 99.3633C259.807 99.4717 259.957 99.6085 260.072 99.7659C260.186 99.9232 260.263 100.098 260.298 100.28C260.854 103.282 261.661 106.247 262.713 109.153C262.79 109.363 262.807 109.586 262.763 109.803C262.719 110.02 262.616 110.225 262.46 110.402C262.305 110.579 262.103 110.723 261.869 110.823C261.636 110.922 261.378 110.974 261.116 110.974ZM416.495 106.992C416.214 106.992 415.938 106.932 415.692 106.818C415.446 106.704 415.238 106.54 415.087 106.341C414.937 106.142 414.848 105.914 414.829 105.678C414.811 105.442 414.863 105.206 414.982 104.992C416.496 102.214 417.843 99.3727 419.017 96.4803C419.089 96.306 419.202 96.1455 419.348 96.0078C419.494 95.8701 419.671 95.758 419.869 95.6779C420.066 95.5977 420.281 95.5511 420.5 95.5407C420.719 95.5303 420.938 95.5564 421.145 95.6173C421.352 95.6782 421.543 95.7729 421.707 95.8959C421.87 96.0189 422.004 96.1678 422.099 96.3341C422.194 96.5004 422.249 96.6809 422.262 96.8652C422.274 97.0495 422.243 97.2341 422.171 97.4083C420.96 100.389 419.571 103.316 418.01 106.18C417.876 106.422 417.662 106.628 417.393 106.772C417.125 106.916 416.813 106.992 416.495 106.992ZM320.502 103.558C320.246 103.558 319.994 103.509 319.765 103.414C319.536 103.319 319.335 103.181 319.179 103.01C319.023 102.84 318.915 102.642 318.864 102.431C318.813 102.22 318.821 102.003 318.885 101.795C320.124 97.8295 322.025 95.0814 324.867 93.146C325.212 92.9138 325.652 92.8059 326.09 92.8458C326.529 92.8858 326.932 93.0703 327.209 93.3591C327.487 93.6479 327.618 94.0175 327.573 94.3871C327.527 94.7567 327.31 95.0962 326.969 95.3315C324.707 96.8715 323.165 99.1524 322.116 102.509C322.022 102.81 321.813 103.075 321.521 103.265C321.229 103.455 320.871 103.558 320.502 103.558ZM151.635 97.7973C151.337 97.7969 151.045 97.7297 150.788 97.6025C150.532 97.4753 150.321 97.2928 150.176 97.0739C150.032 96.8549 149.959 96.6074 149.966 96.357C149.974 96.1066 150.06 95.8623 150.217 95.6495C152.018 93.2094 153.778 90.5901 155.597 87.6423C155.801 87.3114 156.153 87.0623 156.575 86.9498C156.997 86.8373 157.456 86.8706 157.849 87.0424C158.242 87.2141 158.538 87.5103 158.672 87.8658C158.805 88.2212 158.766 88.6068 158.562 88.9377C156.703 91.9503 154.902 94.6309 153.055 97.1331C152.905 97.3365 152.696 97.5042 152.447 97.6205C152.199 97.7367 151.919 97.7976 151.635 97.7973ZM346.149 97.1738C345.767 97.1741 345.396 97.0634 345.099 96.8603C342.129 94.8352 338.996 93.5812 336.04 93.2334C335.602 93.1813 335.206 92.985 334.94 92.6875C334.673 92.39 334.558 92.0157 334.619 91.6467C334.681 91.2778 334.914 90.9445 335.267 90.7199C335.62 90.4953 336.064 90.3979 336.503 90.4489C340.06 90.8674 343.76 92.329 347.202 94.6758C347.47 94.8587 347.665 95.1072 347.758 95.3869C347.852 95.6667 347.84 95.964 347.725 96.2379C347.609 96.5118 347.396 96.7488 347.114 96.9164C346.832 97.0841 346.495 97.174 346.149 97.1738ZM591.24 93.2853C590.846 93.2849 590.465 93.1673 590.164 92.9533C589.863 92.7393 589.662 92.4426 589.595 92.1157C589.004 89.1969 588.533 86.143 588.156 82.7794C588.135 82.5956 588.158 82.4102 588.222 82.2337C588.287 82.0573 588.392 81.8933 588.532 81.7511C588.672 81.6089 588.844 81.4912 589.037 81.4049C589.231 81.3185 589.444 81.2652 589.662 81.2478C589.88 81.2305 590.101 81.2495 590.31 81.3038C590.52 81.3582 590.715 81.4467 590.884 81.5644C591.053 81.6821 591.193 81.8267 591.295 81.9898C591.398 82.153 591.461 82.3316 591.482 82.5154C591.851 85.8082 592.311 88.7941 592.888 91.643C592.963 92.0105 592.861 92.3879 592.605 92.6922C592.349 92.9964 591.96 93.2025 591.523 93.2652C591.429 93.2786 591.335 93.2853 591.24 93.2853ZM257.39 92.6628C256.971 92.6624 256.567 92.5296 256.259 92.2907C255.951 92.0518 255.761 91.7242 255.727 91.3728C255.536 89.428 255.372 87.4526 255.213 85.5421C255.117 84.3872 255.019 83.2325 254.919 82.0781C254.888 81.7071 255.033 81.3409 255.322 81.0595C255.611 80.7782 256.021 80.6048 256.462 80.5772C256.902 80.5496 257.338 80.6701 257.673 80.9123C258.009 81.1545 258.216 81.4987 258.251 81.8694C258.353 83.0276 258.452 84.1865 258.546 85.3461C258.704 87.2478 258.867 89.2143 259.056 91.1413C259.074 91.3252 259.049 91.5104 258.982 91.6862C258.915 91.862 258.808 92.025 258.666 92.1659C258.524 92.3067 258.351 92.4227 258.156 92.5071C257.961 92.5916 257.748 92.6428 257.529 92.658C257.482 92.6612 257.436 92.6628 257.39 92.6628ZM424.051 89.5081C423.788 89.508 423.528 89.4555 423.294 89.3549C423.059 89.2544 422.856 89.1086 422.701 88.9295C422.546 88.7503 422.443 88.5429 422.402 88.3241C422.36 88.1053 422.38 87.8813 422.461 87.6704L422.605 87.2943C423.774 84.2416 424.877 81.4677 425.979 78.8109C426.126 78.4605 426.433 78.1736 426.831 78.0129C427.229 77.8521 427.687 77.8306 428.104 77.9531C428.521 78.0755 428.863 78.3319 429.056 78.6662C429.249 79.0006 429.277 79.3856 429.133 79.7371C428.041 82.3726 426.946 85.1257 425.786 88.1541L425.64 88.5334C425.532 88.8164 425.32 89.0632 425.034 89.2383C424.749 89.4135 424.404 89.5079 424.051 89.5081ZM161.988 81.3556C161.705 81.3554 161.427 81.2948 161.18 81.1795C160.933 81.0642 160.724 80.898 160.574 80.6965C160.424 80.4949 160.337 80.2646 160.321 80.0271C160.306 79.7895 160.362 79.5525 160.485 79.3383L161.048 78.3571C162.443 75.9243 163.885 73.4089 165.355 70.9539C165.453 70.7888 165.589 70.6416 165.755 70.5209C165.922 70.4001 166.114 70.3081 166.323 70.2501C166.531 70.192 166.751 70.1692 166.97 70.1828C167.189 70.1964 167.403 70.2462 167.599 70.3294C167.795 70.4125 167.97 70.5274 168.113 70.6674C168.256 70.8074 168.365 70.9698 168.434 71.1453C168.503 71.3209 168.53 71.5061 168.513 71.6903C168.497 71.8746 168.437 72.0543 168.338 72.2192C166.881 74.6525 165.445 77.1569 164.056 79.5789L163.493 80.561C163.357 80.7992 163.143 81.0001 162.877 81.1407C162.61 81.2812 162.302 81.3557 161.988 81.3556ZM589.063 74.7668C588.634 74.7666 588.221 74.6275 587.911 74.3783C587.601 74.1292 587.416 73.7892 587.396 73.4286L587.245 70.7325C587.123 68.546 587.002 66.3445 586.857 64.1389C586.832 63.7667 586.985 63.4015 587.28 63.1237C587.576 62.846 587.99 62.6784 588.432 62.6578C588.875 62.6372 589.309 62.7654 589.639 63.014C589.969 63.2627 590.168 63.6115 590.192 63.9838C590.338 66.1974 590.46 68.4069 590.582 70.6016L590.733 73.2936C590.743 73.478 590.71 73.6624 590.636 73.8361C590.562 74.0098 590.448 74.1696 590.301 74.3063C590.153 74.4429 589.975 74.5538 589.777 74.6325C589.578 74.7113 589.363 74.7564 589.144 74.7652C589.117 74.7664 589.09 74.7668 589.063 74.7668ZM255.509 74.1175C255.104 74.117 254.713 73.9928 254.409 73.7681C254.105 73.5434 253.908 73.2334 253.855 72.8958C253.445 70.2817 252.954 67.9363 252.357 65.7249C252.196 65.1305 252.02 64.5279 251.833 63.9342C251.776 63.7557 251.762 63.5695 251.791 63.3865C251.82 63.2034 251.892 63.0269 252.002 62.8672C252.112 62.7074 252.259 62.5675 252.433 62.4554C252.608 62.3433 252.807 62.2613 253.019 62.2139C253.231 62.1666 253.452 62.1549 253.67 62.1795C253.887 62.2042 254.097 62.2646 254.287 62.3575C254.476 62.4503 254.642 62.5737 254.775 62.7206C254.909 62.8676 255.006 63.0351 255.062 63.2137C255.259 63.8397 255.445 64.4748 255.614 65.1017C256.235 67.3977 256.743 69.8268 257.167 72.5274C257.196 72.7104 257.181 72.8964 257.125 73.0747C257.068 73.253 256.97 73.4202 256.837 73.5667C256.703 73.7133 256.537 73.8362 256.347 73.9286C256.157 74.021 255.947 74.081 255.73 74.1052C255.657 74.1133 255.583 74.1175 255.509 74.1175ZM431.37 71.9435C431.098 71.9432 430.831 71.8874 430.591 71.7807C430.351 71.674 430.145 71.5196 429.992 71.3311C429.839 71.1425 429.742 70.9253 429.711 70.6984C429.68 70.4714 429.715 70.2414 429.813 70.0284C431.202 67.0184 432.633 64.1048 434.067 61.3686C434.155 61.1995 434.282 61.0466 434.44 60.9188C434.599 60.791 434.786 60.6908 434.991 60.6238C435.195 60.5569 435.414 60.5245 435.633 60.5286C435.853 60.5327 436.069 60.5732 436.27 60.6478C436.471 60.7223 436.652 60.8295 436.804 60.9631C436.955 61.0967 437.074 61.2542 437.154 61.4265C437.233 61.5988 437.271 61.7826 437.266 61.9673C437.261 62.152 437.212 62.3341 437.123 62.503C435.71 65.2008 434.298 68.075 432.928 71.0461C432.806 71.3104 432.592 71.5375 432.314 71.6976C432.036 71.8577 431.707 71.9434 431.37 71.9435ZM172.088 64.7983C171.794 64.798 171.506 64.7325 171.251 64.6084C170.997 64.4843 170.787 64.306 170.64 64.0914C170.494 63.8769 170.418 63.6337 170.419 63.3865C170.42 63.1392 170.499 62.8966 170.647 62.6831C172.525 59.9535 174.578 57.3122 176.798 54.771C176.928 54.6226 177.092 54.4973 177.28 54.4023C177.468 54.3073 177.677 54.2443 177.894 54.2171C178.111 54.1899 178.332 54.1988 178.545 54.2436C178.757 54.2883 178.958 54.3678 179.134 54.4777C179.31 54.5875 179.459 54.7255 179.572 54.8838C179.685 55.042 179.76 55.2175 179.792 55.4001C179.825 55.5826 179.814 55.7688 179.761 55.9479C179.708 56.127 179.613 56.2956 179.483 56.444C177.335 58.9034 175.348 61.4598 173.532 64.1016C173.385 64.3139 173.174 64.4899 172.92 64.6121C172.667 64.7344 172.38 64.7986 172.088 64.7983ZM249.656 56.247C249.341 56.2471 249.032 56.1722 248.765 56.0308C248.498 55.8895 248.284 55.6875 248.148 55.4482C246.627 52.7394 244.734 50.1898 242.508 47.8514C242.229 47.5618 242.099 47.191 242.145 46.8204C242.191 46.4499 242.41 46.1099 242.754 45.8753C243.098 45.6406 243.539 45.5305 243.979 45.5691C244.419 45.6076 244.823 45.7918 245.103 46.081C247.493 48.5901 249.527 51.3264 251.161 54.2338C251.283 54.448 251.338 54.6847 251.322 54.9218C251.306 55.1589 251.218 55.3887 251.068 55.5897C250.918 55.7907 250.709 55.9564 250.462 56.0714C250.216 56.1863 249.938 56.2467 249.656 56.247ZM587.715 56.182C587.3 56.1816 586.901 56.0513 586.594 55.8165C586.287 55.5817 586.095 55.2592 586.055 54.9117C585.67 51.5712 585.199 48.5893 584.615 45.7961C584.539 45.4293 584.639 45.052 584.893 44.7471C585.147 44.4423 585.535 44.2347 585.97 44.1701C586.406 44.1055 586.855 44.1891 587.217 44.4025C587.58 44.6159 587.827 44.9416 587.905 45.3083C588.505 48.1743 588.987 51.2269 589.38 54.6408C589.401 54.8245 589.379 55.0099 589.315 55.1865C589.251 55.3631 589.146 55.5273 589.007 55.6698C588.867 55.8123 588.696 55.9302 588.502 56.017C588.308 56.1037 588.096 56.1575 587.878 56.1753C587.824 56.1799 587.769 56.182 587.715 56.182ZM440.327 54.9305C440.041 54.9302 439.761 54.8683 439.512 54.7506C439.262 54.633 439.053 54.4636 438.904 54.2586C438.755 54.0536 438.671 53.8199 438.659 53.5797C438.648 53.3395 438.71 53.1008 438.84 52.8866C440.567 50.0332 442.379 47.2632 444.228 44.6533C444.454 44.333 444.823 44.1017 445.253 44.0102C445.682 43.9187 446.137 43.9746 446.518 44.1655C446.898 44.3564 447.173 44.6667 447.282 45.0282C447.391 45.3896 447.324 45.7726 447.098 46.0929C445.287 48.6492 443.51 51.3644 441.817 54.1624C441.677 54.3937 441.464 54.5879 441.201 54.7235C440.938 54.859 440.635 54.9307 440.327 54.9305ZM185.351 49.9692C185.018 49.9693 184.694 49.8859 184.418 49.7298C184.142 49.5737 183.928 49.352 183.803 49.0929C183.678 48.8339 183.647 48.5493 183.715 48.2755C183.783 48.0018 183.947 47.7514 184.185 47.5563C186.91 45.3249 189.895 43.3296 193.094 41.6004C193.279 41.5003 193.485 41.4318 193.701 41.3988C193.917 41.3658 194.139 41.369 194.353 41.4081C194.568 41.4473 194.771 41.5217 194.952 41.6271C195.132 41.7324 195.286 41.8667 195.405 42.0222C195.523 42.1777 195.605 42.3513 195.643 42.5332C195.682 42.7151 195.678 42.9016 195.631 43.0821C195.584 43.2627 195.496 43.4337 195.37 43.5853C195.245 43.737 195.085 43.8663 194.9 43.966C191.889 45.5932 189.08 47.4708 186.516 49.5706C186.204 49.8265 185.786 49.9696 185.351 49.9692ZM235.688 42.1063C235.362 42.1063 235.043 42.0255 234.77 41.8738C233.19 40.9956 231.514 40.2458 229.765 39.6348C228.289 39.1213 226.765 38.7105 225.209 38.4066C224.778 38.3222 224.404 38.097 224.17 37.7805C223.935 37.464 223.86 37.0822 223.961 36.719C224.061 36.3558 224.328 36.041 224.705 35.8439C225.081 35.6468 225.534 35.5835 225.966 35.6679C227.7 36.0069 229.398 36.4648 231.043 37.037C232.988 37.7166 234.852 38.5503 236.61 39.5268C236.91 39.6934 237.138 39.9369 237.26 40.2212C237.383 40.5055 237.393 40.8155 237.29 41.1051C237.186 41.3947 236.975 41.6485 236.686 41.8289C236.398 42.0092 236.048 42.1065 235.688 42.1063ZM203.861 40.013C203.469 40.013 203.09 39.8972 202.79 39.6857C202.489 39.4743 202.286 39.1807 202.217 38.8563C202.148 38.5319 202.216 38.1973 202.41 37.9109C202.604 37.6245 202.911 37.4045 203.278 37.2894C206.868 36.1485 210.618 35.4049 214.436 35.0774C214.654 35.0593 214.875 35.0776 215.085 35.1313C215.295 35.185 215.49 35.273 215.66 35.3904C215.83 35.5077 215.97 35.652 216.073 35.8151C216.177 35.9781 216.241 36.1567 216.262 36.3406C216.283 36.5245 216.261 36.7101 216.197 36.8868C216.133 37.0635 216.028 37.2279 215.888 37.3704C215.749 37.513 215.577 37.631 215.383 37.7177C215.189 37.8043 214.977 37.858 214.758 37.8755C211.229 38.1798 207.762 38.8685 204.444 39.9242C204.257 39.9828 204.06 40.0129 203.861 40.013ZM451.674 38.972C451.368 38.9717 451.068 38.9008 450.807 38.7669C450.546 38.6329 450.333 38.4412 450.192 38.2125C450.052 37.9838 449.988 37.727 450.009 37.4701C450.03 37.2132 450.134 36.966 450.311 36.7556C450.961 35.9807 451.627 35.2066 452.291 34.4548C453.847 32.6937 455.487 30.9576 457.165 29.2949C457.452 29.013 457.861 28.8384 458.301 28.8092C458.741 28.78 459.177 28.8986 459.513 29.1391C459.85 29.3796 460.059 29.7224 460.096 30.0926C460.133 30.4628 459.995 30.8303 459.711 31.1148C458.08 32.7315 456.485 34.4195 454.972 36.1323C454.324 36.8654 453.674 37.6205 453.041 38.3764C452.887 38.5607 452.682 38.711 452.444 38.8146C452.206 38.9183 451.942 38.9723 451.674 38.972ZM583.734 37.9048C583.376 37.9046 583.027 37.8074 582.739 37.6276C582.451 37.4478 582.24 37.1948 582.136 36.9062C581.106 34.0073 579.794 31.1844 578.215 28.466C578.118 28.3004 578.06 28.1204 578.046 27.936C578.031 27.7517 578.059 27.5667 578.13 27.3917C578.2 27.2167 578.311 27.0551 578.455 26.9161C578.6 26.7771 578.776 26.6634 578.972 26.5816C579.169 26.4998 579.383 26.4514 579.602 26.4393C579.821 26.4271 580.041 26.4514 580.249 26.5108C580.457 26.5702 580.649 26.6635 580.814 26.7853C580.979 26.9071 581.114 27.0552 581.211 27.2209C582.871 30.0778 584.25 33.0445 585.333 36.0911C585.409 36.3012 585.425 36.5232 585.38 36.7394C585.335 36.9556 585.231 37.16 585.075 37.3362C584.92 37.5124 584.718 37.6557 584.485 37.7544C584.252 37.8531 583.995 37.9046 583.734 37.9048ZM465.988 24.8137C465.656 24.8137 465.331 24.7302 465.055 24.5739C464.779 24.4177 464.565 24.1957 464.44 23.9364C464.315 23.6771 464.285 23.3923 464.354 23.1185C464.422 22.8447 464.586 22.5943 464.825 22.3994C467.51 20.203 470.328 18.1238 473.267 16.1699C473.615 15.9402 474.057 15.836 474.496 15.8801C474.935 15.9242 475.336 16.1131 475.609 16.4053C475.883 16.6976 476.008 17.0693 475.957 17.4389C475.906 17.8086 475.682 18.1461 475.336 18.3773C472.487 20.2715 469.755 22.2872 467.152 24.4165C466.84 24.6715 466.423 24.814 465.988 24.8137ZM573.881 21.3629C573.626 21.3632 573.374 21.3143 573.145 21.2198C572.916 21.1253 572.715 20.9878 572.559 20.8179C570.37 18.447 567.879 16.284 565.133 14.3669C564.964 14.249 564.824 14.1041 564.722 13.9407C564.62 13.7773 564.557 13.5985 564.537 13.4146C564.516 13.2306 564.539 13.0451 564.605 12.8687C564.67 12.6923 564.775 12.5284 564.916 12.3864C565.056 12.2444 565.228 12.1271 565.423 12.0411C565.617 11.9552 565.829 11.9023 566.048 11.8855C566.267 11.8688 566.487 11.8884 566.697 11.9433C566.906 11.9983 567.101 12.0874 567.269 12.2057C570.203 14.2534 572.862 16.564 575.201 19.0965C575.392 19.3043 575.51 19.553 575.542 19.8145C575.574 20.076 575.518 20.3397 575.38 20.5757C575.243 20.8118 575.029 21.0106 574.764 21.1498C574.5 21.2889 574.194 21.3628 573.881 21.3629ZM483.347 13.3289C482.984 13.3292 482.63 13.2298 482.34 13.0458C482.05 12.8618 481.839 12.6033 481.739 12.3094C481.639 12.0154 481.656 11.7022 481.787 11.417C481.918 11.1318 482.155 10.8902 482.464 10.7288C485.653 9.05887 488.96 7.55468 492.367 6.22471C492.567 6.14637 492.782 6.10191 493.002 6.09389C493.222 6.08586 493.441 6.11444 493.648 6.17796C493.854 6.24149 494.044 6.33872 494.206 6.46408C494.368 6.58944 494.498 6.74045 494.591 6.90845C494.683 7.07646 494.735 7.25814 494.744 7.44308C494.752 7.62803 494.717 7.81258 494.641 7.98617C494.565 8.15975 494.448 8.31894 494.299 8.4546C494.149 8.59026 493.969 8.69972 493.769 8.77669C490.486 10.0584 487.299 11.5079 484.226 13.117C483.963 13.2555 483.658 13.329 483.347 13.3289ZM557.048 9.49353C556.77 9.49353 556.496 9.43486 556.252 9.32287C553.093 7.88516 549.79 6.68311 546.382 5.7305C546.174 5.67209 545.981 5.57977 545.816 5.45879C545.65 5.33782 545.514 5.19057 545.416 5.02544C545.318 4.86032 545.26 4.68056 545.244 4.49643C545.229 4.3123 545.256 4.1274 545.326 3.95229C545.395 3.77718 545.505 3.61529 545.649 3.47586C545.792 3.33643 545.967 3.2222 546.164 3.13968C546.36 3.05716 546.573 3.00797 546.792 2.99492C547.011 2.98187 547.231 3.00522 547.439 3.06363C551.033 4.06826 554.515 5.336 557.847 6.85228C558.173 7.00154 558.431 7.23814 558.58 7.52466C558.729 7.81118 558.76 8.13126 558.668 8.43429C558.576 8.73733 558.367 9.00601 558.074 9.19785C557.781 9.38968 557.42 9.49373 557.048 9.49353ZM503.381 5.56941C502.981 5.56921 502.594 5.44834 502.291 5.22875C501.988 5.00917 501.789 4.70542 501.729 4.37268C501.67 4.03994 501.754 3.70027 501.967 3.41536C502.18 3.13044 502.507 2.91917 502.889 2.81992C505.216 2.21569 507.591 1.69744 509.948 1.27942C511.248 1.04902 512.576 0.847012 513.897 0.679073C514.113 0.651459 514.335 0.660068 514.548 0.704407C514.761 0.748747 514.961 0.827949 515.138 0.937492C515.314 1.04703 515.463 1.18477 515.577 1.34284C515.69 1.50091 515.765 1.67622 515.798 1.85875C515.831 2.04128 515.821 2.22746 515.768 2.40666C515.715 2.58587 515.621 2.75458 515.491 2.90318C515.361 3.05177 515.197 3.17733 515.009 3.2727C514.821 3.36806 514.613 3.43136 514.396 3.45897C513.139 3.6189 511.874 3.81134 510.637 4.0305C508.38 4.4309 506.104 4.9274 503.874 5.50648C503.714 5.5481 503.548 5.56932 503.381 5.56941ZM536.181 3.58731C536.09 3.58733 536 3.58114 535.911 3.5688C532.355 3.08427 528.759 2.83108 525.157 2.81149C524.714 2.81034 524.289 2.66113 523.977 2.39669C523.665 2.13225 523.49 1.77424 523.491 1.40141C523.493 1.02859 523.67 0.671488 523.984 0.408673C524.298 0.145859 524.724 -0.00114284 525.167 6.69149e-06H525.178C528.953 0.0204947 532.72 0.285841 536.447 0.793687C536.861 0.850362 537.234 1.03612 537.493 1.31403C537.752 1.59193 537.877 1.94164 537.844 2.29363C537.81 2.64562 537.62 2.97411 537.312 3.2138C537.004 3.4535 536.6 3.58684 536.181 3.58731Z" fill="#391D1E"/>
<path d="M719.45 105.938C719.107 105.938 718.772 105.849 718.491 105.684C718.21 105.519 717.997 105.285 717.879 105.014C717.762 104.743 717.746 104.448 717.835 104.169C717.923 103.89 718.112 103.641 718.374 103.456C719.796 102.45 721.213 101.444 722.625 100.437C722.964 100.197 723.401 100.079 723.842 100.11C724.284 100.142 724.692 100.319 724.978 100.603C725.264 100.888 725.404 101.256 725.367 101.627C725.331 101.999 725.12 102.342 724.783 102.583C723.367 103.591 721.947 104.599 720.523 105.608C720.223 105.821 719.842 105.938 719.45 105.938Z" fill="#391D1E"/>
</g>
<g clip-path="url(#clip1_641_6042)">
<path d="M67.8648 210.963C69.2604 209.906 70.3535 208.5 71.0343 206.886C71.7151 205.273 71.9597 203.509 71.7436 201.771L67.257 165.7C67.1039 164.469 67.2742 163.219 67.7511 162.074C68.228 160.93 68.995 159.929 69.9765 159.17L80.9494 150.694C83.6832 148.583 85.9051 145.881 87.4493 142.791L88.452 140.785C88.6324 140.424 88.7082 140.02 88.6709 139.618C88.6337 139.216 88.4848 138.833 88.2412 138.512C87.9976 138.19 87.6689 137.943 87.2923 137.799C86.9157 137.654 86.5062 137.618 86.1101 137.694L83.9071 138.116C80.5146 138.767 77.3127 140.175 74.5402 142.235L63.4114 150.506C62.4159 151.246 61.2448 151.713 60.0136 151.863C58.7824 152.012 57.5335 151.838 56.39 151.358L22.8773 137.28C21.2629 136.601 19.4985 136.36 17.7611 136.579C16.0238 136.797 14.3745 137.469 12.9788 138.527C27.1638 144.955 40.8604 156.029 46.4085 160.781C46.5856 160.933 46.7261 161.123 46.8197 161.337C46.9133 161.55 46.9575 161.782 46.9491 162.015C46.9407 162.248 46.8799 162.477 46.7711 162.683C46.6624 162.889 46.5085 163.068 46.321 163.207L43.9556 161.334C43.4003 160.894 42.6993 160.681 41.9932 160.736C41.2872 160.792 40.6284 161.113 40.1491 161.635L37.4768 164.542C37.1155 164.935 36.8951 165.437 36.8501 165.969C36.8032 166.523 36.5658 167.045 36.178 167.444L35.1895 168.462L36.6048 167.735C37.0449 167.509 37.544 167.424 38.0342 167.491L38.8594 167.605L40.1898 167.764L37.83 169.517C36.3143 170.644 34.9479 171.958 33.7634 173.429L27.8042 180.828L18.8513 175.131C17.9198 174.539 16.8153 174.278 15.7172 174.393C14.619 174.507 13.5918 174.989 12.8024 175.761L10.3447 178.165L23.3241 186.39L21.6642 188.451C21.6059 188.523 21.5735 188.613 21.5721 188.706C21.5708 188.799 21.6005 188.89 21.6566 188.964C21.7127 189.038 21.792 189.091 21.8818 189.115C21.9716 189.139 22.0668 189.132 22.1522 189.095L24.5853 188.055L28.9928 202.776L31.9956 201.046C32.9471 200.497 33.6867 199.645 34.0952 198.626C34.5038 197.606 34.5577 196.479 34.2482 195.426L31.2465 185.206L39.8876 181.511C41.6239 180.769 43.2588 179.809 44.7532 178.655L47.0801 176.857L46.873 178.181L46.7593 179.006C46.6917 179.496 46.4748 179.954 46.1382 180.316L45.0554 181.482L46.3027 180.806C46.7919 180.541 47.3579 180.453 47.9045 180.558C48.4287 180.659 48.9715 180.582 49.4476 180.341L52.9696 178.555C53.6013 178.234 54.0884 177.687 54.3331 177.022C54.5779 176.357 54.5621 175.625 54.289 174.971L53.1254 172.187C53.3097 172.044 53.5239 171.945 53.7519 171.896C53.98 171.847 54.2162 171.85 54.4428 171.905C54.6695 171.96 54.8809 172.065 55.0612 172.213C55.2415 172.361 55.3862 172.548 55.4845 172.759C58.5582 179.386 65.5137 195.568 67.8648 210.963Z" fill="#FF9900"/>
</g>
<g clip-path="url(#clip2_641_6042)">
<path d="M738.001 41C708.749 41 738.001 75.8979 738.001 75.8979C738.001 75.8979 767.249 41 738.001 41ZM738.001 63.0749C736.046 63.0752 734.135 62.5011 732.509 61.4253C730.883 60.3495 729.616 58.8203 728.868 57.0309C728.119 55.2416 727.923 53.2726 728.304 51.3729C728.686 49.4731 729.627 47.728 731.009 46.3582C732.391 44.9884 734.152 44.0554 736.069 43.6772C737.986 43.299 739.974 43.4927 741.78 44.2336C743.586 44.9745 745.13 46.2294 746.217 47.8397C747.303 49.45 747.883 51.3433 747.883 53.2802C747.884 54.5662 747.628 55.8398 747.132 57.028C746.635 58.2163 745.907 59.2961 744.99 60.2056C744.072 61.1151 742.982 61.8367 741.783 62.329C740.584 62.8213 739.299 63.0747 738.001 63.0749Z" fill="#FF9900"/>
<path d="M738.001 44.8264C736.313 44.8261 734.662 45.3218 733.259 46.2508C731.855 47.1797 730.761 48.5003 730.115 50.0454C729.469 51.5905 729.3 53.2908 729.629 54.9311C729.958 56.5715 730.771 58.0783 731.965 59.2609C733.158 60.4435 734.679 61.2488 736.335 61.575C737.99 61.9012 739.706 61.7336 741.266 61.0934C742.825 60.4533 744.158 59.3692 745.096 57.9785C746.033 56.5877 746.534 54.9527 746.533 53.2803C746.533 52.17 746.313 51.0707 745.884 50.045C745.455 49.0193 744.827 48.0873 744.034 47.3022C743.242 46.5172 742.301 45.8945 741.266 45.4697C740.231 45.0449 739.121 44.8263 738.001 44.8264ZM738.001 60.3736C736.585 60.373 735.201 59.9564 734.024 59.1766C732.847 58.3967 731.93 57.2887 731.389 55.9925C730.847 54.6963 730.706 53.2701 730.983 51.8944C731.259 50.5186 731.941 49.255 732.943 48.2633C733.944 47.2716 735.22 46.5964 736.609 46.3229C737.997 46.0495 739.437 46.1902 740.745 46.7271C742.053 47.2641 743.171 48.1733 743.957 49.3397C744.744 50.5062 745.163 51.8775 745.163 53.2803C745.163 55.1619 744.408 56.9663 743.065 58.2965C741.721 59.6267 739.9 60.3739 738.001 60.3736Z" fill="#FF9900"/>
<path d="M741.319 82.7124C741.319 83.3626 741.124 83.9983 740.76 84.5389C740.395 85.0796 739.877 85.501 739.271 85.7498C738.664 85.9986 737.997 86.0637 737.353 85.9369C736.71 85.81 736.118 85.4969 735.654 85.0372C735.19 84.5774 734.874 83.9916 734.746 83.3538C734.618 82.7161 734.684 82.0551 734.935 81.4543C735.186 80.8536 735.612 80.3401 736.157 79.9789C736.703 79.6176 737.344 79.4248 738.001 79.4248C738.881 79.4248 739.725 79.7712 740.347 80.3877C740.969 81.0043 741.319 81.8405 741.319 82.7124Z" fill="#FF9900"/>
</g>
<defs>
<clipPath id="clip0_641_6042">
<rect width="603" height="136" fill="white" transform="translate(122.375)"/>
</clipPath>
<clipPath id="clip1_641_6042">
<rect width="85.5691" height="84.7375" fill="white" transform="translate(0.606445 140.983) rotate(-14.6769)"/>
</clipPath>
<clipPath id="clip2_641_6042">
<rect width="26" height="45" fill="white" transform="translate(725 41)"/>
</clipPath>
</defs>
</svg>
