<svg width="42" height="34" viewBox="0 0 42 34" fill="none" xmlns="http://www.w3.org/2000/svg">
<path d="M41.7071 8.3448C42.0976 7.95428 42.0976 7.32111 41.7071 6.93059L35.3431 0.566628C34.9526 0.176103 34.3195 0.176103 33.9289 0.566628C33.5384 0.957152 33.5384 1.59032 33.9289 1.98084L39.5858 7.6377L33.9289 13.2945C33.5384 13.6851 33.5384 14.3182 33.9289 14.7088C34.3195 15.0993 34.9526 15.0993 35.3431 14.7088L41.7071 8.3448ZM4 8.6377H41V6.6377H4V8.6377Z" fill="black"/>
<path d="M0.417892 24.9306C0.0273704 25.3211 0.0273705 25.9543 0.417893 26.3448L6.78186 32.7088C7.17238 33.0993 7.80554 33.0993 8.19607 32.7088C8.58659 32.3182 8.58659 31.6851 8.19607 31.2946L2.53922 25.6377L8.19607 19.9808C8.58659 19.5903 8.58659 18.9572 8.19607 18.5666C7.80554 18.1761 7.17238 18.1761 6.78185 18.5666L0.417892 24.9306ZM38.125 24.6377L1.125 24.6377L1.125 26.6377L38.125 26.6377L38.125 24.6377Z" fill="black"/>
</svg>
