<?xml version="1.0" encoding="utf-8"?>
<!-- Generator: Adobe Illustrator 19.2.1, SVG Export Plug-In . SVG Version: 6.00 Build 0)  -->
<svg version="1.1" id="Слой_1" xmlns="http://www.w3.org/2000/svg" xmlns:xlink="http://www.w3.org/1999/xlink" x="0px" y="0px"
	 viewBox="0 0 31 31" style="enable-background:new 0 0 31 31;" xml:space="preserve">
<style type="text/css">
	.st0{fill:#FFFFFF;}
</style>
<circle cx="15.7" cy="10.1" r="5.1"/>
<path d="M23.7,25.3c0-4.4-3.6-8-8-8s-8,3.6-8,8h-2c0-5.6,4.5-10,10-10c5.6,0,10,4.5,10,10H23.7z"/>
<path d="M15.7,30.2c-8.3,0-15-6.7-15-15c0-8.3,6.7-15,15-15c8.3,0,15,6.7,15,15C30.7,23.4,23.9,30.2,15.7,30.2z M15.7,2.2c-7.2,0-13,5.8-13,13c0,7.2,5.8,13,13,13c7.2,0,13-5.8,13-13C28.7,8,22.8,2.2,15.7,2.2z"/>
</svg>
