<?xml version="1.0" encoding="utf-8"?>
<!-- Generator: Adobe Illustrator 19.2.1, SVG Export Plug-In . SVG Version: 6.00 Build 0)  -->
<svg version="1.1" id="Слой_1" xmlns="http://www.w3.org/2000/svg" xmlns:xlink="http://www.w3.org/1999/xlink" x="0px" y="0px"
	 viewBox="0 0 25 26" style="enable-background:new 0 0 25 26;" xml:space="preserve">
<style type="text/css">
	.st0{fill:#FFFFFF;}
</style>
<path d="M18.3,24.1h-12c-2.8,0-5-2.2-5-5v-12c0-2.8,2.2-5,5-5h12c2.8,0,5,2.2,5,5v12C23.3,21.8,21,24.1,18.3,24.1zM6.3,4.1c-1.7,0-3,1.3-3,3v12c0,1.7,1.3,3,3,3h12c1.7,0,3-1.3,3-3v-12c0-1.7-1.3-3-3-3H6.3z"/>
<path d="M12.3,18.6c-3,0-5.5-2.5-5.5-5.5s2.5-5.5,5.5-5.5s5.5,2.5,5.5,5.5S15.3,18.6,12.3,18.6z M12.3,9.6c-1.9,0-3.5,1.6-3.5,3.5s1.6,3.5,3.5,3.5s3.5-1.6,3.5-3.5S14.2,9.6,12.3,9.6z"/>
<circle cx="18.5" cy="7.4" r="1.2"/>
<path d="M18.5,9.1c-0.9,0-1.7-0.8-1.7-1.7s0.8-1.7,1.7-1.7s1.7,0.8,1.7,1.7S19.4,9.1,18.5,9.1z M18.5,6.6c-0.4,0-0.7,0.3-0.7,0.7s0.3,0.7,0.7,0.7s0.7-0.3,0.7-0.7S18.9,6.6,18.5,6.6z"/>
</svg>
