<?xml version="1.0" encoding="utf-8"?>
<!-- Generator: Adobe Illustrator 19.2.1, SVG Export Plug-In . SVG Version: 6.00 Build 0)  -->
<svg version="1.1" id="Слой_1" xmlns="http://www.w3.org/2000/svg" xmlns:xlink="http://www.w3.org/1999/xlink" x="0px" y="0px"
	 viewBox="0 0 24 24" style="enable-background:new 0 0 24 24;" xml:space="preserve">
<style type="text/css">
	.st0{fill:#0D0F0F;}
</style>
<g>
	<path d="M23.1,1.6c-0.3-0.3-0.5-0.3-0.8-0.3L1.1,10.8c-0.4,0.1-0.5,0.5-0.4,0.9c0,0.1,0.1,0.3,0.4,0.4l5,2.5L7.4,22c0,0.4,0.4,0.6,0.8,0.5c0.1,0,0.3-0.1,0.4-0.3l4-4l5.8,4.1c0.3,0.3,0.8,0.1,0.9-0.1c0-0.1,0.1-0.1,0.1-0.3l4-19.9C23.2,2,23.2,1.7,23.1,1.6z M6.7,13.1L3,11.3l14.8-6.5L6.7,13.1z M8.7,15.1l-0.6,3.1l-0.6-4l8.1-6.1L9,14.8C8.9,14.9,8.7,15,8.7,15.1z M9.1,19.9l0.8-3.5l1.6,1.1L9.1,19.9z M18.2,20.8l-7.9-5.6L21.5,4L18.2,20.8z"/>
	<path d="M18.6,22.8c-0.1,0-0.4,0-0.5-0.1l-5.6-4l-3.9,3.9c0,0.1-0.3,0.1-0.4,0.3c-0.5,0.1-0.9-0.3-1-0.8L6,14.5L1,12c-0.1-0.1-0.4-0.3-0.4-0.4c-0.1-0.3-0.1-0.4,0-0.6c0.1-0.3,0.3-0.4,0.5-0.5l21.2-9.3c0.4-0.1,0.8,0,1,0.3l0,0c0.1,0.3,0.3,0.5,0.3,0.8l-4,19.8c0,0.1-0.1,0.3-0.1,0.4C19.1,22.7,18.9,22.8,18.6,22.8z M12.5,18.1l5.9,4.1c0.3,0.1,0.5,0.1,0.6-0.1l0.1-0.1l4-19.9c0-0.1,0-0.3-0.1-0.4l0,0c-0.1-0.1-0.4-0.3-0.5-0.1L1.2,10.9C1,11,0.8,11.3,1,11.5c0,0.1,0.1,0.1,0.3,0.3l5.1,2.5l1.3,7.6c0,0.3,0.3,0.4,0.5,0.4c0.1,0,0.3-0.1,0.3-0.1L12.5,18.1z M18.4,21l-8.1-5.9L22,3.4L18.4,21z M10.7,15.1l7.4,5.3l3.1-15.8L10.7,15.1z M8.9,20.4L9.7,16l2,1.5L8.9,20.4z M10,16.8l-0.5,2.5l1.8-1.8L10,16.8z M8.4,18.3H8l-0.6-4.1L15.5,8l0.3,0.3l-6.6,6.6C9,15,9,15,9,15.1L8.4,18.3z M7.7,14.3l0.5,2.9L8.6,15c0-0.1,0.1-0.4,0.3-0.4l4.8-4.8L7.7,14.3z M6.7,13.4L6.7,13.4l-4.3-2l15.1-6.6l0.3,0.4L6.7,13.4z M3.3,11.4L6.6,13l9.6-7.3L3.3,11.4z"/>
</g>
</svg>
