<?xml version="1.0" standalone="no"?>
<!DOCTYPE svg PUBLIC "-//W3C//DTD SVG 20010904//EN"
 "http://www.w3.org/TR/2001/REC-SVG-20010904/DTD/svg10.dtd">
<svg version="1.0" xmlns="http://www.w3.org/2000/svg"
 width="960.000000pt" height="960.000000pt" viewBox="0 0 960.000000 960.000000"
 preserveAspectRatio="xMidYMid meet">
<metadata>
Created by potrace 1.14, written by Peter Selinger 2001-2017
</metadata>
<g transform="translate(0.000000,960.000000) scale(0.100000,-0.100000)"
fill="#000000" stroke="none">
<path d="M4329 9516 c-3 -3 -34 -7 -69 -10 -36 -3 -65 -6 -65 -6 0 -1 -16 -4
-37 -5 -37 -4 -218 -34 -253 -42 -11 -3 -28 -5 -37 -5 -10 1 -18 -2 -18 -6 0
-4 -10 -7 -22 -8 -43 -2 -103 -16 -293 -68 -71 -20 -137 -38 -145 -41 -8 -2
-49 -16 -90 -30 -41 -14 -82 -28 -90 -30 -8 -2 -28 -9 -45 -16 -16 -7 -33 -12
-37 -11 -5 1 -8 -3 -8 -9 0 -5 -4 -8 -10 -4 -5 3 -17 1 -27 -5 -10 -5 -72 -33
-138 -61 -128 -54 -307 -139 -315 -150 -3 -3 -16 -10 -30 -14 -14 -4 -37 -16
-51 -26 -15 -10 -37 -23 -50 -29 -13 -5 -53 -28 -88 -50 -34 -22 -65 -40 -67
-40 -3 0 -38 -22 -79 -50 -41 -27 -78 -50 -83 -50 -6 0 -12 -7 -16 -15 -3 -8
-10 -15 -16 -15 -12 0 -153 -100 -158 -112 -2 -5 -8 -8 -13 -8 -6 0 -24 -13
-42 -30 -18 -16 -36 -30 -40 -30 -4 0 -18 -10 -31 -22 -13 -13 -32 -30 -42
-38 -174 -138 -441 -397 -585 -567 -46 -54 -92 -107 -102 -118 -11 -11 -30
-36 -42 -55 -13 -19 -35 -47 -49 -62 -14 -15 -26 -32 -26 -38 0 -5 -4 -10 -10
-10 -5 0 -10 -5 -10 -10 0 -6 -5 -16 -10 -23 -6 -7 -29 -37 -51 -67 -21 -30
-44 -60 -49 -67 -6 -7 -10 -15 -10 -18 0 -3 -16 -27 -35 -54 -19 -26 -35 -51
-35 -54 0 -4 -13 -26 -29 -49 -38 -58 -93 -151 -127 -218 -15 -30 -32 -56 -36
-58 -4 -2 -8 -8 -8 -12 0 -5 -29 -69 -64 -142 -81 -169 -106 -227 -106 -244 0
-8 -5 -14 -12 -14 -6 0 -8 -3 -5 -7 4 -3 1 -16 -7 -27 -7 -12 -17 -37 -21 -56
-4 -19 -10 -37 -14 -40 -18 -14 -161 -485 -184 -610 -3 -14 -10 -45 -15 -70
-6 -25 -13 -63 -17 -85 -3 -22 -11 -62 -16 -90 -10 -53 -13 -75 -30 -195 -20
-145 -22 -199 -22 -605 0 -410 4 -517 27 -670 30 -199 76 -426 111 -555 38
-136 75 -263 84 -285 5 -11 19 -49 31 -85 23 -71 29 -85 55 -145 9 -22 19 -49
21 -59 2 -11 8 -24 14 -30 5 -5 10 -18 10 -28 0 -10 4 -18 8 -18 5 0 9 -6 9
-12 0 -15 46 -116 115 -253 28 -55 59 -118 71 -140 11 -22 23 -41 28 -43 5 -2
9 -9 9 -15 0 -12 64 -123 122 -209 21 -31 38 -61 38 -67 0 -5 3 -11 8 -13 10
-5 52 -66 52 -77 0 -5 4 -11 8 -13 4 -1 34 -40 66 -85 31 -46 62 -83 68 -83 6
0 9 -3 5 -6 -5 -5 16 -35 56 -76 9 -10 17 -21 17 -26 0 -4 19 -28 43 -54 23
-25 56 -64 74 -85 89 -109 337 -357 463 -463 36 -30 72 -61 80 -68 48 -41 82
-68 135 -108 33 -25 68 -51 77 -59 9 -7 52 -37 95 -66 43 -30 80 -57 81 -61 2
-5 9 -8 16 -8 7 0 21 -9 31 -20 10 -11 22 -20 26 -20 5 0 39 -20 76 -43 37
-24 75 -47 83 -50 8 -4 29 -15 45 -26 121 -74 374 -199 550 -270 11 -5 31 -13
45 -19 23 -9 57 -22 70 -27 3 -1 16 -6 30 -12 14 -6 84 -29 155 -53 72 -23
137 -45 145 -48 8 -3 24 -7 35 -9 28 -6 38 -9 55 -16 17 -7 264 -67 295 -72
11 -2 29 -5 40 -8 11 -3 40 -8 65 -12 66 -10 93 -14 116 -19 22 -4 104 -15
164 -22 19 -2 64 -7 100 -11 85 -10 869 -10 940 0 30 4 80 10 110 12 30 3 66
8 80 10 27 6 90 15 130 20 26 3 67 11 110 20 14 4 34 8 45 9 54 9 98 19 190
42 55 14 109 27 120 28 11 2 28 7 37 10 9 4 22 8 30 10 7 1 19 5 26 9 6 5 12
6 12 3 0 -3 16 2 35 10 19 8 36 13 37 12 5 -3 263 85 268 91 3 3 12 7 20 9 17
4 182 70 250 101 25 11 49 20 54 20 5 -1 12 3 15 8 3 4 56 32 116 62 61 30
164 86 230 124 113 65 388 243 424 273 9 8 75 60 146 116 72 56 144 114 160
129 17 15 57 51 89 81 131 118 297 289 401 412 28 32 55 64 60 70 6 6 26 31
45 56 19 25 40 52 47 60 49 55 270 376 271 394 0 5 4 12 9 15 10 7 98 156 128
216 11 22 24 43 28 46 5 3 9 13 11 21 1 9 7 22 13 29 6 8 30 57 55 109 40 86
63 137 126 280 11 25 25 63 32 85 7 22 16 45 20 50 17 23 150 458 166 545 3
14 7 33 10 42 3 10 7 29 10 43 2 14 6 35 9 48 22 111 44 234 50 283 4 27 8 60
11 74 6 42 16 133 20 180 1 25 3 45 4 45 5 0 12 222 13 380 0 211 -10 410 -28
558 -4 29 -9 68 -11 87 -2 19 -9 62 -15 95 -5 33 -12 71 -14 85 -3 14 -7 36
-9 50 -3 14 -8 41 -10 60 -3 19 -10 50 -15 68 -5 18 -10 35 -10 37 0 3 -2 18
-5 33 -4 15 -8 36 -11 47 -10 51 -57 218 -80 288 -14 43 -25 84 -25 92 0 8 -5
15 -11 15 -5 0 -8 4 -4 9 3 5 1 20 -4 33 -6 13 -33 84 -62 158 -28 74 -56 139
-60 144 -5 6 -9 16 -9 23 0 39 -306 621 -332 631 -4 2 -8 8 -8 13 0 6 -18 37
-40 69 -22 32 -40 63 -40 67 0 5 -9 15 -20 23 -11 8 -20 18 -20 23 0 9 -59 94
-87 127 -7 8 -49 61 -93 118 -90 115 -102 129 -180 216 -105 117 -450 453
-450 439 0 -3 -8 3 -17 13 -9 9 -60 51 -113 93 -52 42 -96 79 -98 84 -2 4 -10
7 -17 7 -7 0 -15 3 -17 8 -1 4 -25 23 -53 42 -27 19 -55 39 -61 45 -6 5 -27
19 -47 30 -20 11 -37 23 -37 27 0 5 -7 8 -15 8 -8 0 -15 5 -15 10 0 6 -5 10
-11 10 -5 0 -36 17 -67 38 -82 53 -95 61 -112 69 -8 4 -46 25 -85 48 -94 55
-315 163 -450 220 -60 25 -119 50 -130 55 -30 14 -230 85 -310 111 -38 12 -77
24 -85 27 -8 3 -24 7 -35 9 -11 2 -31 7 -45 13 -36 13 -268 70 -355 86 -5 1
-12 3 -15 4 -3 1 -14 3 -25 4 -11 2 -33 6 -50 9 -16 4 -48 9 -70 12 -23 3 -50
7 -60 9 -11 2 -43 7 -70 10 -28 4 -64 10 -80 13 -37 7 -999 15 -1006 9z m-899
-220 c0 -3 -4 -8 -10 -11 -5 -3 -10 -1 -10 4 0 6 5 11 10 11 6 0 10 -2 10 -4z
m-30 -10 c0 -2 -7 -6 -15 -10 -8 -3 -15 -1 -15 4 0 6 7 10 15 10 8 0 15 -2 15
-4z m-45 -16 c-3 -5 -14 -10 -24 -10 -9 0 -22 -5 -28 -11 -8 -8 -13 -8 -18 0
-3 6 -3 11 2 10 4 -1 15 0 23 4 14 5 41 15 48 16 2 1 0 -3 -3 -9z m-89 -29
c-3 -5 -16 -11 -28 -14 -22 -6 -22 -5 -4 8 22 17 40 20 32 6z m-56 -22 c0 -5
-4 -7 -10 -4 -5 3 -10 2 -10 -3 0 -5 -6 -9 -12 -9 -37 -2 -586 -257 -608 -282
-3 -3 -25 -17 -50 -30 -25 -13 -76 -44 -113 -68 -37 -23 -71 -43 -75 -43 -5 0
-17 -8 -28 -18 -10 -10 -37 -29 -59 -42 -22 -13 -42 -27 -45 -30 -3 -3 -22
-16 -43 -29 -21 -13 -43 -28 -50 -34 -6 -7 -50 -41 -97 -77 -253 -192 -531
-454 -710 -670 -25 -30 -54 -64 -66 -76 -28 -29 -209 -272 -264 -354 -91 -136
-100 -151 -100 -157 0 -4 -6 -14 -14 -22 -8 -9 -23 -32 -33 -51 -11 -19 -32
-57 -48 -85 -73 -128 -115 -210 -174 -340 -35 -77 -69 -153 -77 -170 -12 -26
-34 -80 -39 -95 -1 -3 -5 -12 -8 -20 -26 -62 -65 -180 -59 -180 4 0 2 -4 -3
-8 -6 -4 -19 -36 -30 -72 -10 -36 -21 -69 -24 -75 -3 -5 -6 -14 -7 -20 -1 -5
-9 -35 -18 -66 -9 -31 -19 -65 -21 -75 -2 -11 -15 -66 -29 -124 -14 -58 -27
-118 -30 -135 -3 -16 -8 -41 -11 -55 -3 -14 -9 -50 -15 -80 -6 -30 -12 -64
-14 -75 -3 -20 -17 -123 -21 -160 -20 -176 -26 -260 -30 -363 -1 -51 -5 -96
-9 -99 -3 -3 -1 -14 4 -24 6 -10 7 -20 3 -22 -9 -6 -8 -159 1 -182 3 -8 1 -15
-5 -15 -6 0 -7 -5 -4 -11 4 -6 9 -53 11 -104 5 -150 19 -300 43 -460 19 -129
22 -150 27 -175 6 -26 19 -94 29 -145 3 -16 8 -37 11 -45 4 -8 8 -31 11 -50 3
-19 8 -37 12 -40 3 -3 7 -14 8 -25 2 -21 10 -60 13 -60 1 0 3 -7 5 -15 10 -42
16 -60 35 -125 12 -38 23 -77 25 -85 5 -23 81 -230 99 -272 9 -21 13 -38 9
-38 -5 0 -3 -4 3 -8 5 -4 21 -34 34 -67 40 -102 241 -506 273 -550 26 -35 87
-137 87 -145 0 -6 5 -10 10 -10 6 0 10 -4 10 -10 0 -10 76 -125 98 -148 6 -7
12 -16 12 -20 0 -4 11 -20 25 -36 14 -16 25 -32 25 -35 0 -3 13 -20 28 -37 15
-18 34 -42 42 -54 8 -12 20 -28 25 -34 6 -6 24 -29 40 -51 17 -21 41 -51 55
-66 14 -15 43 -49 65 -76 56 -67 378 -388 449 -448 33 -28 78 -66 100 -85 23
-19 59 -49 81 -66 22 -17 69 -53 105 -80 91 -70 306 -214 319 -214 6 0 11 -4
11 -10 0 -5 7 -10 15 -10 8 0 15 -5 15 -11 0 -10 -42 12 -102 53 -14 10 -31
18 -36 18 -6 0 -12 4 -14 8 -1 4 -46 36 -98 71 -52 36 -98 69 -102 75 -5 7 -8
7 -8 1 0 -6 -3 -6 -8 1 -4 5 -43 38 -87 71 -44 34 -92 72 -107 85 -15 13 -36
30 -46 38 -113 88 -422 382 -422 402 0 5 -5 6 -10 3 -5 -3 -10 -1 -10 5 0 6
-17 28 -37 49 -21 21 -54 58 -74 82 -20 24 -45 54 -55 66 -11 12 -30 36 -44
53 -14 17 -32 40 -40 50 -8 10 -25 32 -37 47 -12 15 -31 39 -42 52 -12 13 -21
28 -21 32 0 4 -6 14 -13 21 -24 25 -107 147 -107 157 0 6 -4 11 -9 11 -5 0
-13 10 -17 23 -4 12 -16 30 -27 39 -11 10 -17 18 -12 18 4 0 -4 15 -19 34 -14
19 -26 39 -26 45 0 6 -3 11 -8 11 -4 0 -15 17 -25 38 -9 20 -35 69 -57 107
-49 84 -174 340 -202 410 -18 47 -27 68 -63 149 -8 19 -15 36 -15 39 0 3 -5
18 -12 34 -6 15 -12 31 -13 36 -2 4 -3 8 -5 10 -1 1 -3 9 -5 17 -2 8 -17 54
-34 103 -16 48 -27 87 -24 87 3 0 1 6 -5 13 -5 6 -16 38 -23 70 -8 31 -17 57
-21 57 -4 0 -6 8 -6 18 0 9 -7 46 -16 82 -19 74 -20 79 -41 175 -15 71 -23
113 -29 150 -15 92 -20 123 -22 145 -1 14 -3 25 -4 25 -3 0 -5 16 -15 112 -3
40 -8 85 -11 100 -16 116 -22 586 -10 758 11 152 24 275 33 320 4 17 7 46 9
65 1 19 3 35 4 35 1 0 3 11 5 25 1 14 6 41 10 60 4 19 8 44 10 55 5 34 16 89
20 105 2 8 7 29 10 45 3 17 14 66 25 110 12 44 23 87 25 95 2 8 4 15 5 15 2 0
6 16 13 55 3 14 6 26 8 28 1 1 3 7 4 12 1 6 3 11 5 13 1 1 3 9 5 17 4 23 35
121 50 160 19 49 28 73 31 85 8 25 35 102 44 120 5 11 23 54 40 95 45 107 165
359 190 400 28 46 110 191 110 194 0 3 16 28 35 58 19 29 39 60 44 68 86 132
118 177 226 320 87 115 98 128 135 170 14 16 39 45 55 65 46 57 342 353 419
420 37 33 73 65 80 70 31 28 136 112 161 130 15 11 36 28 47 38 10 9 20 17 23
17 3 0 15 9 27 20 12 11 28 20 37 20 8 0 12 3 8 6 -5 5 237 172 268 185 26 11
161 95 167 104 4 5 8 6 8 2 0 -5 12 0 28 10 15 10 63 37 107 58 44 22 83 44
86 48 3 5 9 8 13 7 3 0 34 13 69 29 55 26 118 53 124 52 2 0 33 14 70 30 38
16 77 34 88 38 11 5 36 15 55 24 43 19 50 20 50 6z m-714 -8507 c-5 -4 -66 26
-66 33 0 3 16 -3 35 -12 19 -9 33 -18 31 -21z m69 -36 c16 -13 13 -13 -17 1
-21 10 -38 22 -38 26 0 9 26 -4 55 -27z m65 -42 c0 -2 -9 0 -20 6 -11 6 -20
13 -20 16 0 2 9 0 20 -6 11 -6 20 -13 20 -16z m40 -14 c0 -5 -7 -7 -15 -4 -8
4 -15 8 -15 10 0 2 7 4 15 4 8 0 15 -4 15 -10z"/>
</g>
</svg>
