<svg width="73" height="48" viewBox="0 0 73 48" fill="none" xmlns="http://www.w3.org/2000/svg">
<rect width="72" height="46.3" transform="translate(0 1)" fill="white"/>
<path d="M1 1.9917H68.2202L71.1428 5.15604V41.5459L66.7589 46.2924H3.95338" stroke="#FF9900" stroke-width="2"/>
<path d="M1 1V9.96439H4V16.9184H1V24.6044H4V31.9244H1V38.8784H4V47.3001" stroke="#FF9900" stroke-width="2"/>
<rect x="27.1035" y="33.2642" width="17.197" height="7.59849" stroke="#FF9900" stroke-width="2"/>
<path d="M67.451 40.1475C67.7272 40.1475 67.951 39.9236 67.951 39.6475C67.951 39.3713 67.7272 39.1475 67.451 39.1475V40.1475ZM46.7773 40.1475H67.451V39.1475H46.7773V40.1475Z" fill="#FF9900"/>
<path d="M67.4506 34.9792C67.7267 34.9792 67.9506 34.7554 67.9506 34.4792C67.9506 34.2031 67.7267 33.9792 67.4506 33.9792V34.9792ZM51.9453 34.9792L67.4506 34.9792V33.9792L51.9453 33.9792V34.9792Z" fill="#FF9900"/>
<line x1="46.7773" y1="34.7173" x2="51.2074" y2="34.7173" stroke="#FF9900"/>
<path d="M22.7812 1.9917L22.7812 45.5541" stroke="#FF9900" stroke-width="2" stroke-dasharray="4 2"/>
<rect x="7.40625" y="5.44507" width="11.5519" height="37.394" stroke="#FF9900"/>
<line x1="7.64453" y1="11.0901" x2="18.6704" y2="11.0901" stroke="#FF9900"/>
<line x1="7.64453" y1="16.2588" x2="18.6704" y2="16.2588" stroke="#FF9900"/>
<line x1="7.64453" y1="21.4272" x2="18.6704" y2="21.4272" stroke="#FF9900"/>
<line x1="7.64453" y1="26.5955" x2="18.6704" y2="26.5955" stroke="#FF9900"/>
<line x1="7.64453" y1="31.7642" x2="18.6704" y2="31.7642" stroke="#FF9900"/>
<line x1="7.43359" y1="37.6709" x2="18.4594" y2="37.6709" stroke="#FF9900"/>
<circle cx="35.7016" cy="24.8806" r="4.16842" stroke="#FF9900" stroke-width="2"/>
<circle cx="49.7309" cy="24.8806" r="4.16842" stroke="#FF9900" stroke-width="2"/>
<circle cx="59.3286" cy="24.8806" r="4.16842" stroke="#FF9900" stroke-width="2"/>
<path d="M27.8418 24.4776C27.8418 14.6501 35.8085 6.68335 45.636 6.68335H63.1891C65.3983 6.68335 67.1891 8.47421 67.1891 10.6833V23.357C67.1891 24.4616 66.2937 25.357 65.1891 25.357H28.7212C28.2355 25.357 27.8418 24.9633 27.8418 24.4776Z" fill="white" stroke="#FF9900" stroke-width="2"/>
<rect x="43.5859" y="12.0901" width="9.33683" height="8.59849" fill="white" stroke="#FF9900"/>
<path d="M28.8319 20.6886C29.0914 15.8962 33.0597 12.0901 37.9168 12.0901H41.1086V20.6886H28.8319Z" fill="white" stroke="#FF9900"/>
<rect x="55.3984" y="12.0901" width="9.33683" height="8.59849" fill="white" stroke="#FF9900"/>
</svg>
