<svg width="65" height="61" viewBox="0 0 65 61" fill="none" xmlns="http://www.w3.org/2000/svg">
<rect x="7.89851" y="40.4061" width="24.4352" height="57.6497" rx="1" transform="rotate(-105 7.89851 40.4061)" fill="white" stroke="#FF9900" stroke-width="2"/>
<rect x="11.8532" y="21.8834" width="26.4451" height="39.3337" rx="1" transform="rotate(-15.6016 11.8532 21.8834)" fill="white" stroke="#FF9900" stroke-width="2"/>
<path d="M25.5977 48.6677L38.4197 45.2321" stroke="#FF9900" stroke-linecap="round"/>
<path d="M48.3398 21.1997L57.4985 18.7457" stroke="#FF9900" stroke-linecap="round"/>
<path d="M49.1582 24.2527L58.3168 21.7986" stroke="#FF9900" stroke-linecap="round"/>
<path d="M26.6719 52.679L39.494 49.2433" stroke="#FF9900" stroke-linecap="round"/>
<path d="M46.5664 29.6577L40.3169 6.33415" stroke="#FF9900" stroke-width="2" stroke-linecap="round"/>
<path d="M31.0117 25.548L29.9867 29.564L35.069 34.6803C35.317 34.9299 35.4155 35.2915 35.3285 35.6324L34.9303 37.1923L28.9098 33.7831L27.3837 38.262L28.0955 38.7134C28.8071 39.1646 29.0464 40.0908 28.6423 40.8303L22.5324 39.2707C22.5322 38.438 23.1972 37.7576 24.0297 37.7387L25.2273 37.7116L26.0345 33.0492L18.7571 33.0641L19.1478 31.5336C19.2388 31.177 19.5183 30.8992 19.8755 30.8104L27.4709 28.9218L28.4959 24.9059C28.6732 24.2112 29.3802 23.7917 30.0749 23.969C30.7696 24.1464 31.1891 24.8533 31.0117 25.548Z" fill="#FF9900"/>
<path d="M54.3766 6.73087L53.6936 9.40663L56.9465 12.6813C57.1945 12.9309 57.293 13.2924 57.206 13.6333L56.9875 14.4893L52.9761 12.2177L51.9593 15.202L52.4336 15.5027C52.9077 15.8034 53.0671 16.4205 52.7979 16.9132L48.727 15.8741C48.7268 15.3192 49.1699 14.8659 49.7246 14.8533L50.5225 14.8353L51.0604 11.7288L46.2116 11.7387L46.4226 10.9121C46.5136 10.5556 46.7931 10.2778 47.1502 10.189L52.0174 8.97878L52.7004 6.30301C52.8185 5.84013 53.2895 5.56067 53.7524 5.67881C54.2153 5.79696 54.4948 6.26799 54.3766 6.73087Z" fill="#FF9900"/>
</svg>
