<svg width="50" height="51" viewBox="0 0 50 51" fill="none" xmlns="http://www.w3.org/2000/svg">
<path d="M1.23438 27.3699V44.6525C1.23438 45.2048 1.68209 45.6525 2.23437 45.6525H34.9174C35.4697 45.6525 35.9174 45.2048 35.9174 44.6525V10.8459C35.9174 10.5807 35.8121 10.3263 35.6246 10.1388L27.6068 2.12102C27.4193 1.93348 27.1649 1.82812 26.8997 1.82812H2.23437C1.68209 1.82812 1.23438 2.2707 1.23438 2.82299C1.23438 5.73817 1.23438 14.429 1.23438 20.3795M1.23438 23.6059V24.9502" stroke="#FF9900" stroke-width="2" stroke-linecap="round"/>
<path d="M27.3145 1.82812V9.70054C27.3145 10.2528 27.7622 10.7005 28.3145 10.7005H35.6491" stroke="#FF9900" stroke-width="2"/>
<path d="M26.7753 26.5631L37.7986 21.9924L48.8219 27.3697C48.8219 47.2654 38.6052 49.1474 38.6052 49.1474C38.6052 49.1474 25.9687 46.9965 26.7753 26.5631Z" fill="white" stroke="#FF9900" stroke-width="2"/>
<path d="M30.2976 29.4624L38.0815 26.2947L45.8654 30.0215C45.8654 43.8106 38.6511 45.1149 38.6511 45.1149C38.6511 45.1149 29.7281 43.6242 30.2976 29.4624Z" stroke="#FF9900"/>
<path d="M37.531 39.1999L36.7962 39.8782L37.6164 40.7668L38.3352 39.7943L37.531 39.1999ZM42.9058 33.6105C43.2341 33.1664 43.1402 32.5402 42.696 32.2119C42.2519 31.8837 41.6258 31.9776 41.2975 32.4217L42.9058 33.6105ZM33.5699 36.383L36.7962 39.8782L38.2658 38.5216L35.0395 35.0264L33.5699 36.383ZM38.3352 39.7943L42.9058 33.6105L41.2975 32.4217L36.7268 38.6055L38.3352 39.7943Z" fill="#FF9900"/>
<path d="M6.61133 26.6387C6.05904 26.6387 5.61133 27.0864 5.61133 27.6387C5.61133 28.191 6.05904 28.6387 6.61133 28.6387V26.6387ZM6.61133 28.6387H26.507V26.6387H6.61133V28.6387Z" fill="#FF9900"/>
<path d="M6.61133 32.8228C6.05904 32.8228 5.61133 33.2705 5.61133 33.8228C5.61133 34.375 6.05904 34.8228 6.61133 34.8228V32.8228ZM6.61133 34.8228H26.507V32.8228H6.61133V34.8228Z" fill="#FF9900"/>
<path d="M6.61133 39.1997H20.0544" stroke="#FF9900" stroke-width="2" stroke-linecap="round"/>
<path d="M18.8632 10.8938V12.3567C18.8632 12.909 19.311 13.3567 19.8632 13.3567H21.4744C22.0267 13.3567 22.4744 13.8044 22.4744 14.3567V17.0564C22.4744 17.6087 22.0267 18.0564 21.4744 18.0564H19.8632C19.311 18.0564 18.8632 18.5041 18.8632 19.0564V20.7237C18.8632 21.276 18.4155 21.7237 17.8632 21.7237H15.2557C14.7034 21.7237 14.2557 21.276 14.2557 20.7237V19.0564C14.2557 18.5041 13.808 18.0564 13.2557 18.0564H11.6445C11.0922 18.0564 10.6445 17.6087 10.6445 17.0564V14.3567C10.6445 13.8044 11.0922 13.3567 11.6445 13.3567H13.2557C13.808 13.3567 14.2557 12.909 14.2557 12.3567V10.8938C14.2557 10.3415 14.7034 9.8938 15.2557 9.8938H17.8632C18.4155 9.8938 18.8632 10.3415 18.8632 10.8938Z" stroke="#FF9900"/>
</svg>
