<svg width="60" height="59" viewBox="0 0 60 59" fill="none" xmlns="http://www.w3.org/2000/svg">
<g clip-path="url(#clip0_703_2905)">
<path d="M30.2937 59C46.4786 59 59.5991 45.802 59.5991 29.5214C59.5991 13.2408 46.4786 0.0427246 30.2937 0.0427246C14.1088 0.0427246 0.988281 13.2408 0.988281 29.5214C0.988281 45.802 14.1088 59 30.2937 59Z" fill="url(#paint0_radial_703_2905)"/>
<path fill-rule="evenodd" clip-rule="evenodd" d="M37.2052 23.0583H40.2928C40.594 23.179 40.7921 23.3879 40.8535 23.7129V33.0028H40.049V23.7964H37.3102V33.0028H36.5059V23.7478C36.6267 23.374 36.8481 23.1291 37.2052 23.0583Z" fill="#391D1E"/>
<path fill-rule="evenodd" clip-rule="evenodd" d="M34.7104 32.2424V49.6801C33.5262 49.7356 32.6409 49.0538 32.0801 47.5706V34.4086C32.4704 33.0886 33.4044 32.437 34.7104 32.2424ZM35.8159 32.2424H41.4395V49.6801H35.8159V32.2424ZM42.545 32.2424C43.6514 32.4044 44.516 32.8981 44.9845 33.935V47.6404C44.906 48.8436 44.1609 49.5721 42.545 49.6801V32.2424Z" fill="#391D1E"/>
<path fill-rule="evenodd" clip-rule="evenodd" d="M17.4026 21.4883C17.3821 22.1761 18.0782 22.9451 18.1096 23.7132C18.1407 24.4728 17.4564 25.1269 17.5355 25.8981C17.68 27.3047 17.9812 28.7988 17.9715 30.177C17.9618 31.5732 18.3857 35.0143 18.6373 36.5159C18.7892 37.4219 19.1424 37.4647 19.2975 38.2588L20.0746 40.965C20.832 42.413 20.3914 42.3963 20.8652 43.6802L22.1813 48.3007C22.1762 48.8822 22.1608 48.4634 21.8493 49.1641C21.4492 50.0637 21.7279 50.4633 21.5194 51.1183C21.3211 51.7412 20.4563 51.8434 20.8467 52.5197C21.2897 52.8958 22.4213 52.8483 22.938 52.5817C23.4762 52.2677 23.1278 52.5303 23.4591 51.8488C23.6076 51.5434 23.8408 51.201 24.0019 51.0258C25.0044 49.9344 26.1885 50.1967 24.3225 48.1133C23.9634 47.7122 24.0178 48.0267 23.8734 47.2035C23.4429 44.751 23.959 42.9696 23.2642 41.1111C22.6062 39.3513 23.055 40.7216 22.8621 39.2296C22.6948 37.9357 22.761 37.9636 22.9165 36.6987C23.0447 35.6566 22.8391 35.1021 22.7659 34.1386C22.6868 33.0953 22.9887 32.6322 23.0531 31.6567C25.2873 32.0954 26.7256 32.9497 30.5111 33.8406C33.9959 32.751 31.3201 28.7316 32.4902 27.1391C32.5466 27.0623 32.6007 27.0917 32.7258 26.8306C32.5813 25.6537 32.9294 25.0352 32.3183 24.1187C31.4752 23.9422 30.9099 24.2789 30.1436 24.4884C29.286 24.7228 29.0447 25.1123 29.044 26.0506C29.8436 26.6959 29.1353 25.7768 30.4425 27.0943C29.8624 28.0822 29.5591 27.884 29.2337 29.4391C28.8442 29.3509 26.507 27.9811 26.241 27.7747C25.8168 27.4454 25.934 27.3663 25.5216 26.8245C25.017 26.1615 24.8755 25.5377 24.3127 24.999C24.0114 24.7105 24.2166 24.9565 23.9591 24.5941C22.5553 22.6177 23.6842 22.8258 24.2122 22.4773C25.0817 21.9036 24.949 20.0391 29.462 22.2527C31.4857 23.2453 35.6947 24.0179 37.7711 23.4498C38.6033 23.2222 38.2373 23.2842 38.4343 23.2299C38.8058 22.3618 37.4552 21.9622 36.861 21.9519C36.0013 22.1444 36.8898 23.2072 33.9896 22.1087C33.05 21.7527 32.2411 21.2479 31.2894 20.8692C29.2751 20.0674 30.6106 20.9607 28.6433 19.5773C28.1061 19.1996 27.9522 19.3147 27.5237 18.7253C27.0905 18.1296 27.1531 17.9987 26.4241 17.6986C26.5976 17.1989 26.6282 17.2133 26.7876 16.5145C27.0873 17.0103 26.9725 16.8675 27.3929 17.0678C26.4677 15.212 28.6635 13.4168 26.9794 11.6604C25.6149 10.2373 23.5965 10.1964 22.4503 11.825C21.939 12.7918 21.5927 14.0789 21.2717 15.014L19.5083 14.5729C19.3682 13.3811 19.7645 10.2448 20.311 9.25583C21.084 6.88556 20.4891 5.18537 19.3119 7.0345C18.6739 8.03072 18.483 10.7619 18.0447 12.1741C16.7834 16.2369 17.9227 14.8937 18.8491 16.7977C16.7411 18.1066 17.1355 18.4971 17.4026 21.4883Z" fill="#391D1E"/>
<path fill-rule="evenodd" clip-rule="evenodd" d="M42.0061 49.8818C42.2211 49.8821 42.4303 49.9523 42.6025 50.0818V51.9303C42.4354 52.0564 42.2332 52.1263 42.0244 52.1301C41.8156 52.134 41.6109 52.0715 41.4395 51.9517V50.0604C41.6059 49.9443 41.8036 49.882 42.0061 49.8818Z" fill="#391D1E" stroke="#391D1E" stroke-width="0.5669" stroke-miterlimit="22.9256"/>
<path fill-rule="evenodd" clip-rule="evenodd" d="M35.1941 49.8818C35.4091 49.8821 35.6183 49.9523 35.7905 50.0818V51.9303C35.6234 52.0564 35.4212 52.1263 35.2124 52.1301C35.0036 52.134 34.7989 52.0715 34.6274 51.9517V50.0604C34.7939 49.9443 34.9916 49.882 35.1941 49.8818Z" fill="#391D1E" stroke="#391D1E" stroke-width="0.5669" stroke-miterlimit="22.9256"/>
<path fill-rule="evenodd" clip-rule="evenodd" d="M15.7138 7.91588L21.2246 6.41162L20.9199 7.66515L15.603 9.08575L15.7138 7.91588Z" fill="#391D1E"/>
<path fill-rule="evenodd" clip-rule="evenodd" d="M37.7994 12.0865L32.04 8.65627L32.9873 7.97016L34.7492 8.56093C35.5101 7.82651 35.8906 7.74769 35.5903 8.84296C36.0752 9.00563 36.5602 9.16826 37.0452 9.33087C37.8767 8.51383 38.071 8.75462 37.8921 9.6148L39.6938 10.219L42.4599 7.70335C43.247 7.47551 43.6433 7.7279 43.5208 8.61814L40.9064 11.3624L41.4689 13.1297C42.4593 12.8837 42.6259 13.1301 41.7467 14.0022L42.2603 15.6154C43.3544 15.2928 43.497 15.561 42.5448 16.509C42.5262 16.5275 42.4907 16.5428 42.4962 16.5663C42.6056 17.0322 42.9004 17.6259 43.0661 18.1467L42.3083 19.0614L39.1255 13.1918L35.7533 16.241L36.3595 18.4134L35.9048 18.6803L34.7492 16.546L32.5705 15.2119L33.0252 14.7164L34.806 15.4787L37.7994 12.0865Z" fill="#391D1E"/>
<path d="M29.9079 58.961C46.0929 58.961 59.2134 45.763 59.2134 29.4823C59.2134 13.2017 46.0929 0.00366211 29.9079 0.00366211C13.723 0.00366211 0.602539 13.2017 0.602539 29.4823C0.602539 45.763 13.723 58.961 29.9079 58.961Z" stroke="#DECC00" stroke-width="0.216" stroke-miterlimit="22.9256"/>
</g>
<defs>
<radialGradient id="paint0_radial_703_2905" cx="0" cy="0" r="1" gradientUnits="userSpaceOnUse" gradientTransform="translate(30.2937 29.5214) scale(58.6108 58.9573)">
<stop stop-color="white"/>
<stop offset="0.274151" stop-color="#FCEA00"/>
<stop offset="0.609698" stop-color="#EF7800"/>
<stop offset="1" stop-color="#EF7800"/>
</radialGradient>
<clipPath id="clip0_703_2905">
<rect width="59" height="59" fill="white" transform="translate(0.599121)"/>
</clipPath>
</defs>
</svg>
